# Rigged player head cache models 47666 + 249
# Preserve vertex order and animation groups.
o RiggedPlayerHead_Base
v 5 17 182
v 8 17 183
v 1 17 183
v 5 17 181
v 8 15 179
v 10 12 184
v 9 15 185
v 8 17 186
v 3 17 186
v 3 17 184
v 0 18 186
v 0 19 182
v 0 20 178
v 2 17 177
v 6 13 172
v 10 10 180
v 10 8 182
v 10 5 183
v 9 12 188
v 8 16 188
v 7 17 190
v 3 19 187
v 0 17 190
v -3 19 187
v -3 17 186
v -1 17 183
v -2 17 177
v -5 17 181
v -8 15 179
v -6 13 172
v -10 10 180
v -10 9 178
v -10 8 180
v -11 4 181
v -10 7 177
v -10 4 181
v -8 2 174
v -3 9 169
v -5 -2 173
v -7 -4 165
v -7 8 164
v 7 8 164
v 3 9 169
v 7 -4 165
v 5 -2 173
v 8 2 174
v 10 7 177
v 10 4 181
v 11 4 181
v 10 9 178
v 10 8 180
v -8 17 183
v -5 17 182
v -10 12 184
v -10 8 182
v -11 8 182
v -11 5 183
v -10 5 183
v -8 -3 183
v 0 -4 183
v -3 17 184
v -8 17 186
v -9 15 185
v -9 12 188
v 11 8 182
v 11 5 183
v -8 -3 190
v -6 -3 192
v 0 -4 193
v 0 -4 190
v 0 -4 188
v -8 -3 188
v -9 1 191
v -8 -2 195
v -4 0 195
v -2 -1 197
v 0 -3 196
v 2 -1 197
v 4 0 195
v 6 -3 192
v 8 -3 190
v 8 -3 188
v -10 5 188
v -10 7 191
v -8 4 194
v -9 0 195
v -5 0 197
v -8 2 196
v -5 2 198
v 0 4 195
v 0 1 197
v 10 5 188
v 8 -3 183
v 9 1 191
v 10 7 191
v 8 13 191
v 6 17 191
v 8 2 196
v 9 0 195
v 5 0 197
v 8 4 194
v 8 -2 195
v -8 16 188
v -8 13 191
v -7 17 190
v -8 14 195
v -3 15 196
v -6 12 197
v -8 10 192
v -6 17 191
v -6 17 195
v 0 14 193
v -4 10 195
v -9 10 196
v -11 7 195
v 6 12 197
v 3 15 196
v 8 14 195
v 8 10 192
v 4 10 195
v 6 17 195
v 11 7 195
v 9 10 196
v 7 8 197
v 7 5 198
v 5 7 198
v 0 8 198
v 3 10 198
v 0 13 197
v -2 10 198
v -3 5 198
v -5 7 198
v -7 5 197
v -9 5 196
v -6 8 197
v 9 5 196
v 5 2 198
v 3 5 198
v -6 13 172
v 0 19 175
v 0 18 177
v -3 17 177
v 6 13 172
v 3 17 177
v 0 17 174
v 0 18 172
v 0 18 167
v 3 9 169
v 10 7 177
v 10 9 178
v -3 9 169
v -10 7 177
v -10 9 178
f 1 2 3
f 1 3 4
f 1 4 2
f 2 4 5
f 2 5 6
f 2 6 7
f 2 7 8
f 2 8 9
f 2 9 10
f 2 10 3
f 3 10 9
f 3 9 11
f 3 11 12
f 3 12 13
f 3 13 14
f 3 14 4
f 4 14 5
f 5 14 15
f 5 15 16
f 5 16 6
f 6 16 17
f 6 17 18
f 6 18 19
f 6 19 7
f 7 19 20
f 7 20 8
f 8 20 21
f 8 21 22
f 8 22 9
f 9 22 11
f 11 22 23
f 11 23 24
f 11 24 25
f 11 25 26
f 11 26 12
f 12 26 13
f 13 26 27
f 27 26 28
f 27 28 29
f 27 29 30
f 30 29 31
f 30 31 32
f 32 31 33
f 32 33 34
f 32 34 35
f 35 34 36
f 35 36 37
f 35 37 38
f 38 37 39
f 38 39 40
f 38 40 41
f 38 41 42
f 38 42 43
f 43 42 44
f 43 44 45
f 43 45 46
f 43 46 47
f 47 46 48
f 47 48 49
f 47 49 50
f 50 49 51
f 50 51 16
f 50 16 15
f 26 52 53
f 26 53 28
f 28 53 52
f 28 52 29
f 29 52 54
f 29 54 31
f 31 54 55
f 31 55 33
f 33 55 56
f 33 56 34
f 34 56 57
f 34 57 36
f 36 57 58
f 36 58 59
f 36 59 37
f 37 59 39
f 39 59 60
f 39 60 45
f 39 45 40
f 40 45 44
f 26 61 52
f 52 61 25
f 52 25 62
f 52 62 63
f 52 63 54
f 54 63 64
f 54 64 58
f 54 58 55
f 55 58 56
f 56 58 57
f 65 49 66
f 65 66 18
f 65 18 17
f 65 17 51
f 65 51 49
f 48 18 66
f 48 66 49
f 67 68 69
f 67 69 70
f 67 70 71
f 67 71 72
f 67 72 73
f 67 73 68
f 68 73 74
f 68 74 75
f 68 75 69
f 69 75 76
f 69 76 77
f 69 77 78
f 69 78 79
f 69 79 80
f 69 80 81
f 69 81 70
f 70 81 71
f 71 81 82
f 71 82 60
f 71 60 72
f 72 60 59
f 72 59 83
f 72 83 73
f 73 83 84
f 73 84 85
f 73 85 86
f 73 86 74
f 74 86 87
f 74 87 75
f 75 87 88
f 75 88 85
f 75 85 89
f 75 89 90
f 75 90 91
f 75 91 76
f 76 91 78
f 76 78 77
f 17 16 51
f 92 19 18
f 92 18 93
f 92 93 82
f 92 82 94
f 92 94 95
f 92 95 19
f 19 95 96
f 19 96 20
f 20 96 21
f 21 96 97
f 21 97 23
f 21 23 22
f 98 99 100
f 98 100 79
f 98 79 101
f 98 101 99
f 99 101 94
f 99 94 102
f 99 102 100
f 100 102 79
f 79 102 80
f 80 102 94
f 80 94 81
f 81 94 82
f 62 103 63
f 63 103 64
f 64 103 104
f 64 104 84
f 64 84 83
f 64 83 58
f 58 83 59
f 23 105 24
f 24 105 62
f 24 62 25
f 26 25 61
f 18 48 93
f 93 48 46
f 93 46 45
f 93 45 60
f 93 60 82
f 106 107 108
f 106 108 109
f 106 109 104
f 106 104 110
f 106 110 111
f 106 111 107
f 107 111 110
f 107 110 112
f 107 112 113
f 107 113 108
f 108 113 109
f 109 113 114
f 109 114 115
f 109 115 84
f 109 84 104
f 23 110 105
f 105 110 104
f 105 104 103
f 105 103 62
f 116 117 118
f 116 118 119
f 116 119 120
f 116 120 117
f 117 120 112
f 117 112 97
f 117 97 121
f 117 121 118
f 118 121 97
f 118 97 96
f 118 96 119
f 119 96 95
f 119 95 122
f 119 122 123
f 119 123 120
f 120 123 124
f 120 124 101
f 120 101 125
f 120 125 126
f 120 126 90
f 120 90 127
f 120 127 128
f 120 128 129
f 120 129 112
f 112 129 113
f 113 129 130
f 113 130 127
f 113 127 90
f 113 90 131
f 113 131 132
f 113 132 133
f 113 133 85
f 113 85 134
f 113 134 135
f 113 135 114
f 114 135 115
f 115 135 134
f 115 134 85
f 115 85 84
f 132 131 133
f 133 131 89
f 133 89 85
f 23 97 112
f 23 112 110
f 128 130 129
f 130 128 127
f 122 124 123
f 124 122 136
f 124 136 101
f 101 136 122
f 101 122 95
f 101 95 94
f 137 138 125
f 137 125 101
f 137 101 79
f 137 79 90
f 137 90 138
f 138 90 126
f 138 126 125
f 90 89 131
f 90 79 91
f 91 79 78
f 86 88 87
f 88 86 85
f 139 140 141
f 139 141 142
f 141 143 144
f 143 141 140
f 143 140 145
f 143 145 146
f 143 146 147
f 143 147 148
f 143 148 149
f 143 149 150
f 140 139 145
f 145 139 146
f 146 139 147
f 147 139 151
f 151 139 152
f 152 139 153
