# Ensouled elf head item 13480, cache model 30539
# Do not reorder vertices or triangles when editing for Face Swap.
o EnsouledElfHead_Base
v 5 -4 24
v 1 -2 23
v 4 -2 21
v 8 -3 21
v 6 -7 24
v 0 -6 27
v -1 -3 24
v -1 2 30
v 1 3 24
v 5 -1 23
v 7 2 23
v 9 -3 17
v 9 -6 23
v 5 -9 24
v 0 -8 27
v -2 -6 27
v -3 -2 23
v -3 3 24
v -1 5 27
v -1 6 28
v 3 9 25
v -1 -14 23
v 3 -20 14
v -1 -19 15
v -5 -20 14
v -9 -13 18
v -2 -8 27
v 7 -13 18
v 11 -14 13
v 9 -16 2
v -1 -20 6
v -11 -16 2
v -13 -14 13
v -11 -3 17
v -11 -6 23
v -7 -9 24
v -8 -7 24
v -1 -16 -4
v -1 -4 -8
v 11 -6 -1
v 11 5 -5
v -1 5 -11
v -13 -6 -1
v -13 -4 11
v -16 -1 13
v -13 11 17
v -9 11 14
v -11 3 14
v -9 2 23
v -10 -3 21
v 9 3 12
v 6 11 9
v 4 9 3
v 6 19 -2
v 11 18 -4
v 11 -4 11
v 15 -6 -1
v 11 3 12
v 9 3 14
v 7 11 14
v 3 16 14
v 6 24 14
v 14 -1 13
v 11 11 17
v 11 11 13
v 4 15 21
v -1 17 27
v -5 16 14
v -8 24 14
v -8 11 9
v -8 19 -2
v -6 9 3
v -13 18 -4
v -11 3 12
v -13 5 -5
v -11 16 -12
v -1 14 -16
v 9 16 -12
v -1 11 27
v -5 9 23
v -6 15 21
v -9 11 14
v -7 -4 24
v -6 -2 21
v -7 -1 23
v -13 3 12
v -17 -6 -1
v -1 9 27
v -13 11 13
v -11 24 14
v 7 11 14
v 9 24 14
f 1 2 3
f 1 3 4
f 1 4 5
f 1 5 2
f 2 5 6
f 2 6 7
f 2 7 8
f 2 8 9
f 2 9 10
f 2 10 3
f 3 10 4
f 4 10 11
f 4 11 12
f 4 12 13
f 4 13 5
f 5 13 14
f 5 14 15
f 5 15 6
f 6 15 16
f 6 16 7
f 7 16 17
f 7 17 8
f 8 17 18
f 8 18 19
f 8 19 9
f 9 19 20
f 9 20 21
f 9 21 11
f 9 11 10
f 22 23 24
f 22 24 25
f 22 25 26
f 22 26 27
f 22 27 15
f 22 15 28
f 22 28 23
f 23 28 29
f 23 29 30
f 23 30 31
f 23 31 24
f 24 31 25
f 25 31 32
f 25 32 33
f 25 33 26
f 26 33 34
f 26 34 35
f 26 35 36
f 26 36 27
f 27 36 37
f 27 37 16
f 27 16 15
f 38 31 30
f 38 30 39
f 38 39 32
f 38 32 31
f 30 40 39
f 39 40 41
f 39 41 42
f 39 42 43
f 39 43 32
f 32 43 33
f 33 43 44
f 33 44 45
f 33 45 34
f 34 45 46
f 34 46 47
f 34 47 48
f 34 48 49
f 34 49 50
f 34 50 35
f 35 50 37
f 35 37 36
f 51 52 53
f 51 53 54
f 51 54 55
f 51 55 41
f 51 41 40
f 51 40 56
f 51 56 57
f 51 57 58
f 51 58 59
f 51 59 52
f 52 59 60
f 52 60 61
f 52 61 62
f 52 62 54
f 52 54 53
f 63 56 29
f 63 29 12
f 63 12 64
f 63 64 65
f 63 65 59
f 63 59 58
f 63 58 57
f 63 57 56
f 59 12 11
f 59 11 60
f 60 11 66
f 60 66 61
f 61 66 67
f 61 67 68
f 61 68 62
f 62 68 69
f 69 68 70
f 69 70 71
f 71 70 72
f 71 72 73
f 73 72 74
f 73 74 75
f 73 75 76
f 76 75 42
f 76 42 77
f 77 42 78
f 78 42 41
f 78 41 55
f 29 56 40
f 29 40 30
f 11 21 66
f 66 21 67
f 67 21 79
f 67 79 80
f 67 80 81
f 67 81 68
f 68 81 82
f 68 82 70
f 70 82 48
f 70 48 74
f 70 74 72
f 83 50 84
f 83 84 17
f 83 17 37
f 83 37 50
f 50 49 85
f 50 85 84
f 84 85 17
f 17 85 18
f 18 85 49
f 18 49 80
f 18 80 20
f 18 20 19
f 49 48 82
f 49 82 81
f 49 81 80
f 86 48 45
f 86 45 87
f 86 87 44
f 86 44 74
f 86 74 48
f 21 88 79
f 79 88 80
f 80 88 20
f 20 88 21
f 43 74 44
f 74 43 75
f 75 43 42
f 28 14 13
f 28 13 12
f 28 12 29
f 45 44 87
f 28 15 14
f 17 16 37
f 45 89 46
f 46 89 90
f 46 90 47
f 47 90 89
f 47 89 45
f 47 45 48
f 91 64 12
f 91 12 59
f 91 59 65
f 91 65 92
f 91 92 64
f 64 92 65
