# Rigged player head cache models 230 + 249
# Preserve vertex order and animation groups.
o RiggedPlayerHead_Base
v 4 17 182
v 6 17 183
v 1 17 183
v 4 17 181
v 8 15 179
v 10 12 184
v 8 17 186
v 3 17 186
v 3 17 184
v 0 18 186
v 0 19 182
v 0 20 178
v 2 17 177
v 6 13 172
v 10 10 180
v 10 8 182
v 10 6 191
v 7 17 190
v 3 19 187
v 0 17 190
v -3 19 187
v -3 17 186
v -1 17 183
v -2 17 177
v -4 17 181
v -8 15 179
v -6 13 172
v -10 10 180
v -10 9 178
v -10 8 180
v -11 4 181
v -10 7 177
v -10 4 181
v -8 2 174
v -3 9 169
v -5 -2 173
v -7 -4 165
v -7 8 164
v 3 9 169
v 7 8 164
v 7 -4 165
v 5 -2 173
v 8 2 174
v 10 7 177
v 10 4 181
v 11 4 181
v 10 9 178
v 10 8 180
v -6 17 183
v -4 17 182
v -10 12 184
v -10 8 182
v -3 17 184
v -8 17 186
v -7 17 190
v -10 6 191
v -10 5 183
v -11 8 182
v -11 5 183
v -8 -4 187
v 8 -4 187
v 0 16 192
v 11 8 182
v 11 5 183
v 10 5 183
v 5 4 196
v -5 4 196
v 0 -2 192
v -6 13 172
v 0 19 175
v 0 18 177
v -3 17 177
v 6 13 172
v 3 17 177
v 0 17 174
v 0 18 172
v 0 18 167
v 3 9 169
v 10 7 177
v 10 9 178
v -3 9 169
v -10 7 177
v -10 9 178
f 1 2 3
f 1 3 4
f 1 4 2
f 2 4 5
f 2 5 6
f 2 6 7
f 2 7 8
f 2 8 9
f 2 9 3
f 3 9 8
f 3 8 10
f 3 10 11
f 3 11 12
f 3 12 13
f 3 13 4
f 4 13 5
f 5 13 14
f 5 14 15
f 5 15 6
f 6 15 16
f 6 16 17
f 6 17 18
f 6 18 7
f 7 18 19
f 7 19 8
f 8 19 10
f 10 19 20
f 10 20 21
f 10 21 22
f 10 22 23
f 10 23 11
f 11 23 12
f 12 23 24
f 24 23 25
f 24 25 26
f 24 26 27
f 27 26 28
f 27 28 29
f 29 28 30
f 29 30 31
f 29 31 32
f 32 31 33
f 32 33 34
f 32 34 35
f 35 34 36
f 35 36 37
f 35 37 38
f 35 38 39
f 39 38 40
f 39 40 41
f 39 41 42
f 39 42 43
f 39 43 44
f 44 43 45
f 44 45 46
f 44 46 47
f 47 46 48
f 47 48 15
f 47 15 14
f 23 49 50
f 23 50 25
f 25 50 49
f 25 49 26
f 26 49 51
f 26 51 28
f 28 51 52
f 28 52 30
f 30 52 30
f 30 30 29
f 23 53 49
f 49 53 22
f 49 22 54
f 49 54 51
f 51 54 55
f 51 55 56
f 51 56 52
f 52 56 57
f 52 57 58
f 52 58 30
f 30 58 31
f 31 58 59
f 31 59 33
f 33 59 57
f 33 57 60
f 33 60 34
f 34 60 36
f 36 60 61
f 36 61 42
f 36 42 37
f 37 42 41
f 19 18 20
f 20 18 62
f 20 62 55
f 20 55 21
f 21 55 54
f 21 54 22
f 23 22 53
f 63 46 64
f 63 64 65
f 63 65 16
f 63 16 48
f 63 48 46
f 47 48 48
f 48 48 16
f 48 16 15
f 45 65 64
f 45 64 46
f 58 57 59
f 62 18 66
f 62 66 67
f 62 67 55
f 55 67 56
f 56 67 60
f 56 60 57
f 67 66 68
f 67 68 60
f 60 68 61
f 61 68 66
f 61 66 17
f 61 17 65
f 61 65 45
f 61 45 43
f 61 43 42
f 17 16 65
f 17 66 18
f 69 70 71
f 69 71 72
f 71 73 74
f 73 71 70
f 73 70 75
f 73 75 76
f 73 76 77
f 73 77 78
f 73 78 79
f 73 79 80
f 70 69 75
f 75 69 76
f 76 69 77
f 77 69 81
f 81 69 82
f 82 69 83
